<?xml version="1.0" encoding="UTF-8" standalone="no"?><svg xmlns:xlink="http://www.w3.org/1999/xlink" xmlns="http://www.w3.org/2000/svg" xmlns:svg="http://www.w3.org/2000/svg" version="1.1" id="svg1" width="682.66998" height="682.66998" viewBox="0 0 682.66999 682.66999"><defs id="defs1"><clipPath clipPathUnits="userSpaceOnUse" id="clipPath101"><circle style="fill:#000000;stroke-width:2.78801" id="circle101" cx="85.796875" cy="-62.251995" r="256.00125"/></clipPath><clipPath clipPathUnits="userSpaceOnUse" id="clipPath102"><circle style="fill:#000000;stroke-width:2.78801" id="circle102" cx="-36.589256" cy="-163.60939" r="256.00125" transform="scale(1,-1)"/></clipPath><clipPath clipPathUnits="userSpaceOnUse" id="clipPath103"><circle style="fill:#000000;stroke-width:2.78801" id="circle103" cx="39.89777" cy="-146.99919" r="256.00125" transform="scale(1,-1)"/></clipPath><clipPath clipPathUnits="userSpaceOnUse" id="clipPath104"><circle style="fill:#000000;stroke-width:2.78801" id="circle104" cx="140.42725" cy="-81.163094" r="256.00125" transform="scale(1,-1)"/></clipPath><clipPath clipPathUnits="userSpaceOnUse" id="clipPath105"><circle style="fill:#000000;stroke-width:2.78801" id="circle105" cx="143.54124" cy="-26.856995" r="256.00125" transform="scale(1,-1)"/></clipPath><clipPath clipPathUnits="userSpaceOnUse" id="clipPath106"><circle style="fill:#000000;stroke-width:2.78801" id="circle106" cx="-98.083931" cy="92.181808" r="256.00125" transform="scale(1,-1)"/></clipPath><clipPath clipPathUnits="userSpaceOnUse" id="clipPath107"><circle style="fill:#000000;stroke-width:2.78801" id="circle107" cx="57.716347" cy="120.84431" r="256.00125" transform="scale(1,-1)"/></clipPath><clipPath clipPathUnits="userSpaceOnUse" id="clipPath108"><circle style="fill:#000000;stroke-width:2.78801" id="circle108" cx="-151.80966" cy="-56.923393" r="256.00125" transform="scale(1,-1)"/></clipPath><clipPath clipPathUnits="userSpaceOnUse" id="clipPath109"><circle style="fill:#000000;stroke-width:2.78801" id="circle109" cx="-150.30763" cy="34.047611" r="256.00125" transform="scale(1,-1)"/></clipPath><clipPath clipPathUnits="userSpaceOnUse" id="clipPath110"><circle style="fill:#000000;stroke-width:2.78801" id="circle110" cx="-62.299107" cy="475.27423" r="256.00125" transform="scale(1,-1)"/></clipPath><clipPath clipPathUnits="userSpaceOnUse" id="clipPath111"><circle style="fill:#000000;stroke-width:2.78801" id="circle111" cx="-126.63336" cy="437.60721" r="256.00125" transform="scale(1,-1)"/></clipPath><clipPath clipPathUnits="userSpaceOnUse" id="clipPath112"><circle style="fill:#000000;stroke-width:2.78801" id="circle112" cx="-190.96761" cy="399.94012" r="256.00125" transform="scale(1,-1)"/></clipPath><clipPath clipPathUnits="userSpaceOnUse" id="clipPath113"><circle style="fill:#000000;stroke-width:2.78801" id="circle113" cx="-255.30186" cy="362.27301" r="256.00125" transform="scale(1,-1)"/></clipPath><clipPath clipPathUnits="userSpaceOnUse" id="clipPath114"><circle style="fill:#000000;stroke-width:2.78801" id="circle114" cx="-319.63605" cy="324.60593" r="256.00125" transform="scale(1,-1)"/></clipPath><clipPath clipPathUnits="userSpaceOnUse" id="clipPath115"><circle style="fill:#000000;stroke-width:2.78801" id="circle115" cx="-383.97021" cy="286.93881" r="256.00125" transform="scale(1,-1)"/></clipPath><clipPath clipPathUnits="userSpaceOnUse" id="clipPath116"><circle style="fill:#000000;stroke-width:2.78801" id="circle116" cx="-448.30453" cy="249.27182" r="256.00125" transform="scale(1,-1)"/></clipPath></defs><g id="layer-MC1" style="display:inline" transform="translate(-2097.9983,0.00166001)"><path id="path55" d="m 0,0 -438.677,-749.246 -64.335,37.667 438.678,749.246 z" style="fill:#603e98;fill-opacity:1;fill-rule:nonzero;stroke:none" transform="matrix(1.3333333,0,0,-1.3333333,3037.0727,8.9709333)" clip-path="url(#clipPath116)"/><path id="path57" d="m 0,0 -438.677,-749.246 -64.335,37.667 438.678,749.246 z" style="fill:#2255a6;fill-opacity:1;fill-rule:nonzero;stroke:none" transform="matrix(1.3333333,0,0,-1.3333333,2951.2936,-41.251733)" clip-path="url(#clipPath115)"/><path id="path59" d="m 0,0 -438.677,-749.246 -64.335,37.667 438.678,749.246 z" style="fill:#1da0b5;fill-opacity:1;fill-rule:nonzero;stroke:none" transform="matrix(1.3333333,0,0,-1.3333333,2865.5147,-91.474533)" clip-path="url(#clipPath114)"/><path id="path61" d="m 0,0 -438.677,-749.246 -64.335,37.667 438.678,749.246 z" style="display:inline;fill:#6abd46;fill-opacity:1;fill-rule:nonzero;stroke:none" transform="matrix(1.3333333,0,0,-1.3333333,2779.7358,-141.69733)" clip-path="url(#clipPath113)"/><path id="path63" d="m 0,0 -438.677,-749.246 -64.335,37.667 438.678,749.246 z" style="fill:#f4d80f;fill-opacity:1;fill-rule:nonzero;stroke:none" transform="matrix(1.3333333,0,0,-1.3333333,2693.9568,-191.92013)" clip-path="url(#clipPath112)"/><path id="path65" d="m 0,0 -438.677,-749.246 -64.335,37.667 438.678,749.246 z" style="fill:#fdb717;fill-opacity:1;fill-rule:nonzero;stroke:none" transform="matrix(1.3333333,0,0,-1.3333333,2608.1778,-242.14293)" clip-path="url(#clipPath111)"/><path id="path67" d="m 0,0 -438.677,-749.246 -64.335,37.667 438.678,749.246 z" style="fill:#da2227;fill-opacity:1;fill-rule:nonzero;stroke:none" transform="matrix(1.3333333,0,0,-1.3333333,2522.3988,-292.3656)" clip-path="url(#clipPath110)"/><path id="path69" d="m 0,0 c -4.59,-1.457 -9.154,-3.001 -13.781,-4.329 -1.903,-0.547 -2.873,-1.526 -3.475,-3.427 -3.204,-10.117 -6.675,-20.151 -9.806,-30.29 -2.054,-6.655 -4.703,-13.131 -6.142,-19.975 -1.921,-4.113 -3.017,-8.514 -4.419,-12.806 -7.937,-24.297 -15.825,-48.61 -23.746,-72.913 -0.411,-1.258 -0.631,-2.332 0.282,-3.57 11.75,-15.946 23.449,-31.928 35.162,-47.902 0.73,-1.251 1.468,-2.498 2.68,-3.525 0.296,0.354 0.573,0.628 0.784,0.945 22.04,33.146 44.077,66.295 66.101,99.452 0.426,0.64 0.886,1.285 0.869,2.149 -0.141,7.493 0.714,14.973 0.323,22.471 0.135,7.779 0.262,15.559 0.407,23.338 0.388,20.783 0.747,41.566 1.222,62.346 0.061,2.679 -0.707,2.824 -3.003,2.069 C 28.997,9.28 14.491,4.662 0,0 m -254.796,7.031 c -2.092,-1.461 -4.208,-2.888 -6.271,-4.39 -6.145,-4.472 -6.139,-4.484 -3.602,-11.613 0.096,-0.27 0.306,-0.5 0.463,-0.748 0.089,-0.478 0.128,-0.972 0.276,-1.43 4.5,-13.913 8.989,-27.829 13.526,-41.729 5.755,-17.627 11.551,-35.24 17.328,-52.859 2.93,-9.169 5.827,-18.349 8.801,-27.503 1.829,-5.631 1.881,-5.625 7.958,-5.612 16.881,0.037 33.762,0.084 50.644,0.128 1.082,-0.036 2.165,-0.104 3.247,-0.104 26.64,-0.006 53.28,0.056 79.92,-0.082 3.284,-0.017 4.685,1.201 5.636,4.139 13.722,42.413 27.52,84.801 41.304,127.193 1.899,5.839 1.941,5.876 -3.061,9.5 -10.771,7.807 -21.576,15.566 -32.367,23.345 -8.067,5.937 -16.104,11.916 -24.21,17.8 -12.243,8.888 -24.534,17.708 -36.807,26.557 -5.379,3.97 -10.826,7.852 -16.098,11.959 -1.78,1.388 -2.904,1.107 -4.57,-0.108 -24.333,-17.752 -48.725,-35.425 -73.082,-53.146 -9.705,-7.062 -19.358,-14.196 -29.035,-21.297 m -91.885,-10.308 c -0.096,-0.672 -0.289,-1.347 -0.273,-2.017 0.269,-11.902 0.628,-23.802 0.839,-35.705 0.311,-17.619 0.518,-35.239 0.778,-52.859 0.022,-1.471 0.01,-2.933 0.901,-4.256 5.273,-7.834 10.514,-15.69 15.766,-23.538 6.233,-9.461 12.434,-18.942 18.706,-28.377 9.106,-13.699 18.262,-27.363 27.397,-41.042 1.664,-2.588 3.327,-5.176 5.172,-8.047 12.89,17.646 25.48,34.895 38.097,52.124 0.686,0.937 0.551,1.75 0.215,2.746 -2.005,5.949 -3.954,11.916 -5.922,17.877 -0.241,0.848 -0.453,1.705 -0.725,2.543 -6.256,19.311 -12.491,38.629 -18.789,57.926 -3.798,11.637 -7.695,23.242 -11.548,34.862 -2.602,8.23 -5.226,16.453 -7.782,24.697 -0.407,1.312 -1.47,1.489 -2.456,1.812 -4.76,1.558 -9.532,3.078 -14.305,4.595 -12.346,3.925 -24.694,7.841 -37.041,11.76 -3.095,1.04 -6.189,2.08 -9.54,3.207 0.062,-6.39 -0.065,-12.356 0.51,-18.308 m 213.491,-228.568 c 0.676,0.081 1.369,0.096 2.027,0.253 18.556,4.441 37.11,8.885 55.659,13.354 12.319,2.967 24.628,5.973 36.998,8.975 -0.137,0.408 -0.169,0.723 -0.329,0.945 -12.215,16.945 -24.444,33.88 -36.65,50.83 -0.709,0.985 -1.535,1.347 -2.739,1.318 -3.745,-0.09 -7.493,-0.077 -11.24,-0.104 -1.177,0.045 -2.355,0.129 -3.532,0.129 -19.98,0.008 -39.959,0.017 -59.939,0.001 -7.675,-0.006 -15.349,-0.073 -23.023,-0.112 -15.186,0.046 -30.373,0.051 -45.558,0.188 -2.015,0.018 -3.205,-0.644 -4.343,-2.24 -7.262,-10.181 -14.62,-20.293 -21.939,-30.433 -4.886,-6.771 -9.76,-13.55 -14.795,-20.541 16.667,-3.982 32.995,-7.882 49.322,-11.783 0.845,-0.246 1.681,-0.526 2.535,-0.732 19.236,-4.629 38.474,-9.254 57.716,-13.862 0.948,-0.227 1.993,-0.586 2.891,-0.398 5.697,1.191 11.383,2.444 16.939,4.212 m -97.191,278.936 c 0,0 -0.002,-0.073 -0.002,-0.072 0.276,0.094 0.596,0.126 0.822,0.29 23.047,16.731 46.081,33.481 69.144,50.19 1.212,0.878 1.516,1.893 1.479,3.271 -0.145,5.318 -0.298,10.638 -0.313,15.958 -0.041,14.702 -0.014,29.403 -0.014,44.104 v 3.389 c -2.261,-0.515 -4.19,-1.165 -5.994,-2.175 -1.026,-0.321 -2.067,-0.602 -3.077,-0.969 -28.839,-10.5 -57.59,-21.254 -86.567,-31.362 -8.492,-2.962 -15.572,-6.789 -20.517,-14.552 -3.672,-5.765 -8.69,-10.597 -12.53,-16.295 -0.415,-0.407 -0.878,-0.775 -1.238,-1.227 -13.059,-16.417 -26.111,-32.84 -39.158,-49.267 -4.275,-5.383 -8.532,-10.779 -12.969,-16.386 4.552,-1.423 8.748,-2.735 12.945,-4.048 16.133,-5.339 32.272,-10.661 48.387,-16.054 1.211,-0.405 1.863,0.183 2.638,0.742 3.436,2.48 6.865,4.97 10.285,7.472 11.999,8.775 23.994,17.556 35.99,26.335 0.23,0.218 0.459,0.437 0.689,0.656 M 14.853,24.024 14.821,23.981 c 8.352,1.882 16.266,5.163 24.437,7.623 1.21,0.364 1.078,0.842 0.446,1.621 -3.911,4.819 -7.813,9.647 -11.718,14.472 -0.555,0.81 -1.063,1.657 -1.672,2.425 -6.617,8.347 -13.238,16.692 -19.882,25.018 -9.408,11.79 -18.836,23.565 -28.255,35.346 -3.259,4.184 -6.566,8.333 -9.751,12.572 -1.057,1.406 -2.317,2.259 -3.952,2.848 -9.669,3.483 -19.273,7.154 -28.975,10.543 -8.038,2.808 -15.884,6.16 -24.088,8.495 -0.232,0.169 -0.441,0.402 -0.701,0.497 -16.682,6.11 -33.373,12.195 -50.047,18.325 -1.807,0.664 -2.128,0.027 -2.128,-1.664 0,-20.594 -0.047,-41.188 -0.112,-61.782 -0.004,-1.176 0.258,-2.029 1.276,-2.747 5.864,-4.138 11.689,-8.333 17.526,-12.509 7.203,-5.301 14.378,-10.64 21.615,-15.894 12.978,-9.423 25.994,-18.795 38.993,-28.187 13.038,-9.517 26.077,-19.031 39.108,-28.557 0.746,-0.545 1.388,-0.874 2.411,-0.53 11.64,3.914 23.301,7.767 34.956,11.637 0.294,0.039 0.685,-0.029 0.545,0.491 M -79.37,160.46 c 16.676,-6.105 33.297,-12.373 50.065,-18.216 4.911,-1.712 8.68,-4.305 11.585,-8.511 1.616,-2.34 3.567,-4.449 5.367,-6.662 C 1.604,109.455 15.552,91.833 29.524,74.229 32.216,70.838 35,67.519 37.741,64.166 44.932,55.037 51.966,45.779 59.383,36.838 c 3.608,-4.35 5.341,-8.736 4.846,-14.53 -0.643,-7.54 -0.291,-15.163 -0.399,-22.749 -0.19,-13.396 -0.404,-26.791 -0.608,-40.188 -0.783,-6.175 -0.325,-12.382 -0.488,-18.572 -0.349,-13.207 -0.619,-26.417 -0.809,-39.627 -0.04,-2.805 -0.952,-5.129 -2.47,-7.408 -17.75,-26.641 -35.464,-53.306 -53.183,-79.968 -7.032,-10.582 -14.106,-21.137 -21.043,-31.781 -2.025,-3.106 -4.724,-4.818 -8.257,-5.644 -7.366,-1.721 -14.698,-3.585 -22.045,-5.391 -22.479,-5.38 -44.962,-10.74 -67.433,-16.148 -11.093,-2.669 -22.165,-5.424 -33.246,-8.14 -6.694,-1.828 -12.81,1.123 -19.029,2.552 -19.302,4.437 -38.522,9.234 -57.772,13.89 -18.379,4.428 -36.753,8.883 -55.146,13.26 -3.539,0.843 -6.237,2.609 -8.182,5.719 -1.977,3.161 -4.169,6.186 -6.268,9.273 -12.864,19.436 -25.719,38.877 -38.598,58.301 -2.658,4.009 -5.408,7.956 -8.115,11.93 -6.974,10.59 -13.888,21.222 -20.965,31.744 -1.893,2.814 -2.774,5.658 -2.825,9.068 -0.317,21.255 -0.805,42.507 -1.236,63.761 -0.229,14.483 -0.45,28.966 -0.693,43.448 -0.099,5.912 -0.301,11.824 -0.346,17.736 -0.02,2.566 1.226,4.699 2.796,6.674 23.86,30 47.708,60.011 71.559,90.018 3.372,4.243 6.811,8.434 10.097,12.743 1.561,2.046 3.477,3.36 5.872,4.224 4.978,1.795 9.904,3.733 14.849,5.612 9.302,2.839 18.323,6.475 27.461,9.782 25.5,9.228 50.966,18.551 76.45,27.824 1.566,0.57 3.172,1.03 4.759,1.542 6.207,-0.816 11.777,-3.633 17.573,-5.702 18.078,-6.457 36.098,-13.075 54.141,-19.631" style="display:inline;fill:#fdfdfc;fill-opacity:1;fill-rule:nonzero;stroke:none" transform="matrix(1.3333333,0,0,-1.3333333,2639.7435,295.93653)" clip-path="url(#clipPath109)"/><path id="path71" d="m 0,0 c 1.574,4.19 3.011,8.061 4.481,11.92 2.067,5.423 6.805,7.809 11.709,5.923 4.743,-1.825 6.744,-6.742 4.774,-12.025 -3.645,-9.773 -7.38,-19.513 -11.03,-29.285 -1.331,-3.562 -3.716,-5.774 -7.552,-6.136 -4.09,-0.386 -6.977,1.466 -8.931,5.013 -7.891,14.322 -15.825,28.62 -23.71,42.945 -2.714,4.931 -1.411,10.035 3.097,12.517 4.494,2.476 9.508,0.886 12.265,-4.023 4.291,-7.643 8.496,-15.334 12.74,-23.004 C -1.495,2.649 -0.819,1.46 0,0" style="fill:#fdfdfc;fill-opacity:1;fill-rule:nonzero;stroke:none" transform="matrix(1.3333333,0,0,-1.3333333,2641.7462,417.2312)" clip-path="url(#clipPath108)"/><path id="path73" d="m 0,0 c 4.538,-6.718 1.006,-13.101 -4.395,-14.525 -1.477,-0.389 -2.935,-0.189 -4.407,-0.146 -4.974,1.865 -7.198,6.563 -10.293,10.284 -1.674,2.013 -2.502,1.817 -4.28,0.302 -5.781,-4.924 -11.7,-9.689 -17.615,-14.453 -4.949,-3.987 -9.575,-3.574 -13.673,1.291 -4.194,4.979 -8.302,10.033 -12.351,15.13 -3.376,4.251 -2.915,9.525 0.953,12.65 3.888,3.142 9.022,2.496 12.588,-1.653 1.993,-2.319 3.947,-4.676 5.798,-7.108 1.072,-1.408 1.823,-1.868 3.409,-0.456 3.387,3.013 6.951,5.836 10.544,8.605 1.519,1.171 1.359,1.993 0.187,3.293 -1.98,2.195 -3.783,4.55 -5.649,6.847 -3.528,4.344 -3.26,9.608 0.648,12.904 3.891,3.283 9.229,2.631 12.783,-1.69 C -17.734,21.522 -9.772,11.721 -1.779,1.947 -1.223,1.268 -0.595,0.648 0,0" style="fill:#fdfdfc;fill-opacity:1;fill-rule:nonzero;stroke:none" transform="matrix(1.3333333,0,0,-1.3333333,2362.3782,180.2076)" clip-path="url(#clipPath107)"/><path id="path75" d="m 0,0 c -3.874,-1.744 -7.356,-1.141 -10.784,1.368 -7.387,5.405 -14.932,10.592 -22.342,15.966 -5.823,4.223 -5.77,11.826 -0.007,15.183 1.688,0.983 3.502,1.16 5.408,1.018 8.254,-0.615 16.508,-1.103 24.776,-0.126 1.633,0.193 3.232,0.399 5.037,0.972 -2.137,3.159 -5.04,4.796 -8.33,5.932 -1.072,0.37 -1.63,-0.419 -2.371,-0.832 -3.921,-2.182 -8.498,-1.426 -11.232,1.854 -2.755,3.306 -2.758,7.951 0.151,11.383 4.414,5.206 10.341,6.037 16.441,4.631 C 8.601,54.617 16.867,47.561 20.723,35.774 21.746,27.517 18.022,22.027 10.724,18.62 7.008,17.582 3.292,16.54 -0.661,16.108 3.851,11.452 3.936,11.302 4.311,7.476 4.204,4.217 2.574,1.836 0,0" style="fill:#fdfdfc;fill-opacity:1;fill-rule:nonzero;stroke:none" transform="matrix(1.3333333,0,0,-1.3333333,2570.1119,218.42427)" clip-path="url(#clipPath106)"/><path id="path77" d="m 0,0 c -1.153,2.981 -2.289,6.439 -3.842,9.698 -0.679,1.426 -2.301,2.039 -4.088,1.383 -4.604,-1.691 -9.257,-3.253 -13.83,-5.022 -1.948,-0.753 -2.928,-2.354 -2.221,-4.504 0.92,-2.794 1.877,-5.583 2.992,-8.302 0.856,-2.089 2.513,-3.013 4.767,-2.222 4.443,1.559 8.865,3.178 13.288,4.792 C -1.219,-3.55 -0.167,-2.37 0,0 m -15.425,-26.628 c -11.532,-0.254 -18.605,4.607 -22.611,15.616 -1.642,4.51 -3.669,8.885 -3.566,13.903 0.174,8.523 4.968,16.043 12.848,19.207 5.198,2.088 10.431,4.183 15.809,5.705 9.959,2.818 17.951,-0.577 24.154,-8.63 C 13.21,15.012 14.734,10.664 16.165,6.285 19.857,-5.007 14.43,-16.44 3.26,-20.466 c -6.166,-2.222 -12.157,-5.023 -18.685,-6.162" style="fill:#fdfdfc;fill-opacity:1;fill-rule:nonzero;stroke:none" transform="matrix(1.3333333,0,0,-1.3333333,2247.945,377.14267)" clip-path="url(#clipPath105)"/><path id="path79" d="m 0,0 c 6.044,-5.015 11.561,-9.615 17.104,-14.183 2.108,-1.737 3.844,-3.66 4.093,-6.554 0.326,-3.783 -0.911,-6.847 -4.308,-8.696 -3.57,-1.944 -7.039,-1.449 -10.145,1.119 -7.518,6.216 -14.997,12.479 -22.492,18.722 -2.271,1.892 -4.604,3.715 -6.806,5.683 -5.64,5.041 -4.212,12.651 2.909,15.269 11.893,4.371 23.811,8.675 35.742,12.941 5.31,1.899 10.13,-0.233 11.835,-5.071 C 29.609,14.471 27.099,9.746 21.827,7.836 14.736,5.268 7.632,2.738 0,0" style="fill:#fdfdfc;fill-opacity:1;fill-rule:nonzero;stroke:none" transform="matrix(1.3333333,0,0,-1.3333333,2252.097,449.5508)" clip-path="url(#clipPath104)"/><path id="path81" d="m 0,0 c -1.656,0.133 -3.321,0.098 -4.936,0.655 -4.038,1.391 -6.296,5.216 -5.707,9.793 0.492,3.822 3.822,6.81 7.901,7.003 4.404,0.209 8.824,-0.319 13.218,0.291 7.497,-0.038 14.997,-0.013 22.495,-0.13 7.017,-0.11 11.31,-5.876 8.894,-11.886 -1.041,-2.59 -3.228,-4.115 -5.556,-5.503 -9.4,-5.608 -18.504,-11.631 -26.281,-19.431 -0.933,-0.936 -2.719,-1.802 -2.262,-3.188 0.524,-1.589 2.563,-1.539 4.051,-1.778 2.638,-0.423 5.337,-0.514 7.959,0.006 2.656,0.527 5.05,1.152 6.19,4.439 1.448,4.171 6.044,5.89 10.277,4.608 4.273,-1.294 6.789,-5.417 6.141,-9.851 -1.096,-7.51 -6.034,-11.807 -12.543,-14.401 -9.555,-3.809 -19.273,-3.784 -28.781,0.289 -7.342,3.145 -14.065,9.407 -11.135,21.05 1.335,3.279 3.485,6.097 5.164,9.181 3.626,2.363 5.985,6.057 9.806,8.853 z" style="fill:#fdfdfc;fill-opacity:1;fill-rule:nonzero;stroke:none" transform="matrix(1.3333333,0,0,-1.3333333,2386.1363,537.33227)" clip-path="url(#clipPath103)"/><path id="path83" d="m 0,0 c 0.521,-2.314 1.521,-0.227 1.865,-0.031 6.751,3.835 13.45,7.761 20.14,11.702 2.511,1.479 5.102,1.988 7.899,0.968 3.121,-1.138 5.109,-3.306 5.624,-6.602 0.558,-3.569 -0.276,-6.848 -3.501,-8.771 -12.242,-7.3 -24.564,-14.465 -36.883,-21.636 -2.916,-1.698 -5.875,-1.078 -8.765,0.228 -2.846,1.808 -3.81,4.49 -3.801,7.746 0.039,13.725 0.008,27.45 0.021,41.175 0.005,5.493 3.05,9.089 7.682,9.142 6.016,0.069 9.475,-3.089 9.561,-9.048 C -0.045,17.074 -0.131,9.272 -0.122,1.471 -0.122,0.981 -0.043,0.49 0,0" style="display:inline;fill:#fdfdfc;fill-opacity:1;fill-rule:nonzero;stroke:none" transform="matrix(1.3333333,0,0,-1.3333333,2488.119,559.4792)" clip-path="url(#clipPath102)"/><path style="font-weight:500;font-size:171.427px;font-family:'Domus Titling';fill:#ffffff" d="M 9.5999121,-7.0285071 C 9.5999121,-0.85713501 14.742722,0 19.028397,0 h 55.370922 c 2.914259,0 4.971383,0 6.85708,-1.371416 1.71427,-1.199989 2.914259,-3.2571131 2.914259,-7.0285071 0,-3.7713939 -1.199989,-5.6570909 -2.914259,-6.8570799 -1.885697,-1.371416 -3.942821,-1.542843 -6.85708,-1.542843 H 32.913984 c 19.371252,-29.828299 47.656707,-38.91393 47.656707,-66.170823 0,-20.914091 -16.799846,-30.171151 -34.971108,-30.171151 -9.085632,0 -17.142701,2.39998 -23.314073,5.82852 -6.85708,3.77139 -11.99989,9.085628 -11.99989,14.057011 0,4.285675 3.771394,8.57135 8.742777,8.57135 2.914259,0 4.799956,-1.542843 7.371361,-3.942821 4.628529,-4.285675 9.257058,-7.371361 17.314127,-7.371361 10.799902,0 17.314128,5.485664 17.314128,15.42843 0,14.057014 -12.685598,19.885532 -32.228277,41.656762 C 18.171262,-27.085466 9.5999121,-14.914149 9.5999121,-7.0285071 Z M 116.57027,-94.113424 h 30.17115 c 3.25711,0 5.14281,0 7.02851,-1.199989 1.88569,-1.371416 2.74283,-3.599967 2.74283,-7.199937 0,-3.42854 -0.85714,-5.82852 -2.74283,-7.0285 -1.8857,-1.37142 -3.7714,-1.37142 -7.02851,-1.37142 h -39.77107 c -7.19993,0 -8.057065,3.59997 -8.399919,8.39992 l -2.914259,39.59964 c -0.342854,5.14281 0,11.657036 7.885638,11.657036 3.59997,0 11.14276,-1.71427 17.82841,-1.71427 14.05702,0 21.94266,7.028507 21.94266,19.028398 0,12.342744 -8.39992,19.371251 -21.25695,19.371251 -12.51417,0 -18.17126,-6.85708 -23.314072,-6.85708 -5.14281,0 -7.885642,5.14281 -7.885642,9.085631 0,5.1428099 4.457102,8.057069 10.285624,10.628474 5.31423,2.22855101 11.65703,3.599967 19.19982,3.599967 20.91409,0 42.5139,-11.1427551 42.5139,-36.513951 0,-22.285511 -15.42843,-34.456828 -37.19966,-34.456828 -5.99995,0 -10.97133,1.199989 -10.97133,1.199989 z" id="text84" clip-path="url(#clipPath101)" transform="matrix(1.3333333,0,0,1.3333333,2324.9375,424.336)" aria-label="25"/></g></svg>