<?xml version="1.0" encoding="UTF-8" standalone="no"?>
<!-- Created with Inkscape (http://www.inkscape.org/) -->
<svg xmlns:dc="http://purl.org/dc/elements/1.1/" xmlns:cc="http://creativecommons.org/ns#" xmlns:rdf="http://www.w3.org/1999/02/22-rdf-syntax-ns#" xmlns:svg="http://www.w3.org/2000/svg" xmlns="http://www.w3.org/2000/svg" xmlns:sodipodi="http://sodipodi.sourceforge.net/DTD/sodipodi-0.dtd" xmlns:inkscape="http://www.inkscape.org/namespaces/inkscape" width="499.86066" height="511.99872" id="svg2" version="1.1" inkscape:version="0.48.4 r9939" sodipodi:docname="d21 white w stroke.svg">
  <defs id="defs4"/>
  <sodipodi:namedview id="base" pagecolor="#ffffff" bordercolor="#666666" borderopacity="1.0" inkscape:pageopacity="0.0" inkscape:pageshadow="2" inkscape:zoom="1.0315356" inkscape:cx="612.71306" inkscape:cy="217.74068" inkscape:document-units="px" inkscape:current-layer="layer1" showgrid="false" inkscape:window-width="1920" inkscape:window-height="1017" inkscape:window-x="1272" inkscape:window-y="-8" inkscape:window-maximized="1" fit-margin-top="0" fit-margin-left="0" fit-margin-right="0" fit-margin-bottom="0"/>
  <metadata id="metadata7">
    <rdf:RDF>
      <cc:Work rdf:about="">
        <dc:format>image/svg+xml</dc:format>
        <dc:type rdf:resource="http://purl.org/dc/dcmitype/StillImage"/>
        <dc:title/>
      </cc:Work>
    </rdf:RDF>
  </metadata>
  <g inkscape:label="Layer 1" inkscape:groupmode="layer" id="layer1" transform="translate(-139.94048,-229.8955)">
    <g id="g2997" transform="translate(133.87116,229.89521)" style="fill:#ffffff;stroke:#222222;stroke-opacity:1;stroke-width:2;stroke-miterlimit:4;stroke-dasharray:none">
      <g id="g2999" style="fill:#ffffff;stroke:#222222;stroke-opacity:1;stroke-width:2;stroke-miterlimit:4;stroke-dasharray:none">
        <path sodipodi:nodetypes="cccccccccccccccccccccccccsccccccccccccccccccccccccccccccccccccccccc" inkscape:connector-curvature="0" d="m 458.601,153.556 20.129,25.331 -73.006,23.944 -139.559,-101.396 0.218,-76.953 126.187,45.98 26.963,33.931 c 3.468,4.362 35.601,44.8 39.068,49.163 z M 435.333,91.837 406.599,55.678 c -1.157,-1.457 -2.696,-2.565 -4.445,-3.203 L 259.788,0.6 C 258.561,0.153 257.28,-0.036 256.011,0.006 254.742,-0.035 253.46,0.153 252.233,0.6 L 109.856,52.475 c -1.748,0.637 -3.287,1.745 -4.445,3.203 L 8.472,177.671 c -0.802,1.009 -1.383,2.147 -1.748,3.346 -0.443,1.178 -0.677,2.44 -0.653,3.732 l 2.714,147.825 c 0.035,1.923 0.62,3.797 1.684,5.398 L 99.164,471.48 c 0.732,1.102 1.667,2.022 2.731,2.747 1.117,0.87 2.409,1.522 3.826,1.863 l 147.906,35.629 c 0.777,0.188 1.57,0.28 2.363,0.28 0.793,0 1.586,-0.094 2.363,-0.28 L 406.259,476.09 c 1.356,-0.326 2.597,-0.936 3.681,-1.75 1.131,-0.739 2.126,-1.693 2.895,-2.851 L 501.53,337.982 c 1.065,-1.601 1.649,-3.474 1.684,-5.398 l 2.714,-147.825 c 0.025,-1.247 -0.188,-2.469 -0.601,-3.613 -0.361,-1.242 -0.951,-2.424 -1.778,-3.466 L 474.401,141 z m -179.343,27.373 136.044,98.836 -51.956,159.934 -168.166,0 -51.966,-159.934 z M 119.44,70.462 245.636,24.483 245.845,101.426 106.287,202.824 33.289,178.879 z M 28.908,329.259 26.507,198.495 100,222.145 l 53.308,164.066 -45.344,62.046 z m 227.082,162.272 -130.917,-31.537 44.666,-61.833 172.511,0 44.659,61.833 z M 483.092,329.27 404.036,448.267 358.692,386.221 412,222.165 485.494,198.508 z" id="path3001" style="fill:#ffffff;stroke:#222222;stroke-opacity:1;stroke-width:2;stroke-miterlimit:4;stroke-dasharray:none"/>
      </g>
    </g>
    <g id="g3009" transform="translate(133.87116,229.89521)" style="fill:#ffffff;stroke:#222222;stroke-opacity:1;stroke-width:2;stroke-miterlimit:4;stroke-dasharray:none">
      <g id="g3011" style="fill:#ffffff;stroke:#222222;stroke-opacity:1;stroke-width:2;stroke-miterlimit:4;stroke-dasharray:none">
        <path inkscape:connector-curvature="0" d="m 248.845,444.345 c -5.115,0 -9.342,3.806 -10.001,8.741 -1.246,0.975 -4.965,2.721 -10.877,2.721 -5.105,0 -8.573,-1.303 -10.228,-2.286 3.465,-5.971 19.617,-18.601 36.099,-27.996 3.978,-2.265 5.933,-6.925 4.762,-11.352 -1.172,-4.426 -5.176,-7.507 -9.754,-7.507 h -41.754 c -5.572,0 -10.09,4.519 -10.09,10.09 0,5.572 4.518,10.091 10.09,10.091 h 8.923 c -13.094,10.572 -19.013,19.228 -19.013,27.587 0,12.288 13.312,21.553 30.967,21.553 17.655,0 30.968,-9.266 30.968,-21.553 -0.002,-5.57 -4.52,-10.089 -10.092,-10.089 z" id="path3013" style="fill:#ffffff;stroke:#222222;stroke-opacity:1;stroke-width:2;stroke-miterlimit:4;stroke-dasharray:none"/>
      </g>
    </g>
    <g id="g3015" transform="translate(133.87116,229.89521)" style="fill:#ffffff;stroke:#222222;stroke-opacity:1;stroke-width:2;stroke-miterlimit:4;stroke-dasharray:none">
      <g id="g3017" style="fill:#ffffff;stroke:#222222;stroke-opacity:1;stroke-width:2;stroke-miterlimit:4;stroke-dasharray:none">
        <path inkscape:connector-curvature="0" d="m 392.206,101.089 c -2.357,-4.88 -6.489,-9.587 -11.647,-13.264 -12.769,-9.071 -27.298,-9.047 -33.794,0.054 -3.237,4.536 -2.185,10.837 2.352,14.074 3.945,2.816 9.226,2.384 12.664,-0.758 1.371,0.14 4.053,0.923 7.079,3.073 2.065,1.471 3.473,2.998 4.346,4.216 -6.457,1.774 -21.634,2.215 -35.434,0.826 -4.555,-0.46 -8.849,2.203 -10.46,6.487 -1.612,4.284 -0.138,9.117 3.592,11.773 l 28.374,20.202 c 1.775,1.263 3.819,1.871 5.843,1.871 3.154,0 6.26,-1.474 8.229,-4.239 3.232,-4.54 2.171,-10.84 -2.368,-14.072 l -2.347,-1.671 c 11.821,-1.258 19.061,-4.421 22.931,-9.857 3.668,-5.143 3.901,-11.963 0.64,-18.715 z" id="path3019" style="fill:#ffffff;stroke:#222222;stroke-opacity:1;stroke-width:2;stroke-miterlimit:4;stroke-dasharray:none"/>
      </g>
    </g>
    <g id="g3021" transform="translate(133.87116,229.89521)" style="fill:#ffffff;stroke:#222222;stroke-opacity:1;stroke-width:2;stroke-miterlimit:4;stroke-dasharray:none">
      <g id="g3023" style="fill:#ffffff;stroke:#222222;stroke-opacity:1;stroke-width:2;stroke-miterlimit:4;stroke-dasharray:none">
        <path inkscape:connector-curvature="0" d="m 107.494,279.442 -3.441,-9.535 c -10e-4,-0.003 -0.002,-0.006 -0.003,-0.009 -4.609,-12.735 -18.721,-19.359 -31.463,-14.764 l -16.029,5.789 c -6.177,2.228 -11.116,6.728 -13.906,12.674 -2.789,5.941 -3.098,12.613 -0.87,18.789 l 3.441,9.539 c 2.229,6.172 6.729,11.108 12.673,13.897 3.32,1.558 6.867,2.342 10.425,2.342 2.817,0.001 5.643,-0.49 8.368,-1.477 l 16.028,-5.79 c 6.176,-2.227 11.116,-6.726 13.906,-12.671 2.792,-5.944 3.099,-12.615 0.871,-18.784 z m -19.137,10.205 c -0.289,0.615 -0.995,1.727 -2.489,2.265 l -16.04,5.794 c -1.486,0.538 -2.741,0.135 -3.357,-0.153 -0.615,-0.29 -1.728,-0.996 -2.264,-2.48 l -3.439,-9.534 c -0.539,-1.493 -0.134,-2.752 0.154,-3.367 0.289,-0.615 0.995,-1.726 2.489,-2.265 l 16.029,-5.789 c 0.49,-0.178 0.992,-0.261 1.486,-0.261 1.801,0 3.498,1.116 4.147,2.908 l 3.44,9.531 c 0.536,1.484 0.132,2.738 -0.156,3.351 z" id="path3025" style="fill:#ffffff;stroke:#222222;stroke-opacity:1;stroke-width:2;stroke-miterlimit:4;stroke-dasharray:none"/>
      </g>
    </g>
    <g id="g3027" transform="translate(133.87116,229.89521)" style="fill:#ffffff;stroke:#222222;stroke-opacity:1;stroke-width:2;stroke-miterlimit:4;stroke-dasharray:none">
      <g id="g3029" style="fill:#ffffff;stroke:#222222;stroke-opacity:1;stroke-width:2;stroke-miterlimit:4;stroke-dasharray:none">
        <path inkscape:connector-curvature="0" d="m 338.812,436.227 c -2.816,-4.808 -8.999,-6.428 -13.807,-3.607 l -26.575,15.564 v -31.315 c 0,-5.572 -4.519,-10.09 -10.091,-10.09 -5.572,0 -10.09,4.518 -10.09,10.09 v 48.918 c 0,3.616 1.935,6.956 5.073,8.755 1.554,0.891 3.286,1.336 5.018,1.336 1.763,0 3.525,-0.461 5.1,-1.383 l 41.765,-24.459 c 4.809,-2.818 6.423,-9 3.607,-13.809 z" id="path3031" style="fill:#ffffff;stroke:#222222;stroke-opacity:1;stroke-width:2;stroke-miterlimit:4;stroke-dasharray:none"/>
      </g>
    </g>
    <g id="g3033" transform="translate(133.87116,229.89521)" style="fill:#ffffff;stroke:#222222;stroke-opacity:1;stroke-width:2;stroke-miterlimit:4;stroke-dasharray:none">
      <g id="g3035" style="fill:#ffffff;stroke:#222222;stroke-opacity:1;stroke-width:2;stroke-miterlimit:4;stroke-dasharray:none">
        <path inkscape:connector-curvature="0" d="m 124.88,327.885 c -1.891,-5.241 -7.674,-7.955 -12.917,-6.065 l -43.096,15.56 c -3.401,1.228 -5.886,4.182 -6.512,7.744 -0.626,3.562 0.702,7.186 3.482,9.501 l 34.832,29 c 1.886,1.57 4.175,2.335 6.451,2.335 2.892,0.001 5.764,-1.237 7.759,-3.634 3.566,-4.282 2.985,-10.645 -1.298,-14.211 l -21.3,-17.733 26.535,-9.58 c 5.242,-1.892 7.957,-7.675 6.064,-12.917 z" id="path3037" style="fill:#ffffff;stroke:#222222;stroke-opacity:1;stroke-width:2;stroke-miterlimit:4;stroke-dasharray:none"/>
      </g>
    </g>
    <g id="g3039" transform="translate(133.87116,229.89521)" style="fill:#ffffff;stroke:#222222;stroke-opacity:1;stroke-width:2;stroke-miterlimit:4;stroke-dasharray:none">
      <g id="g3041" style="fill:#ffffff;stroke:#222222;stroke-opacity:1;stroke-width:2;stroke-miterlimit:4;stroke-dasharray:none">
        <path inkscape:connector-curvature="0" d="M 188.966,115.715 173.62,96.921 c -0.012,-0.015 -0.022,-0.032 -0.035,-0.047 -0.012,-0.015 -0.027,-0.028 -0.039,-0.043 L 158.209,78.046 c -3.525,-4.318 -9.884,-4.958 -14.197,-1.433 -4.317,3.525 -4.957,9.882 -1.433,14.197 l 8.994,11.016 -16.519,13.491 -9.005,-11.019 c -3.527,-4.315 -9.883,-4.953 -14.198,-1.428 -4.315,3.527 -4.954,9.884 -1.428,14.198 l 15.388,18.829 c 1.995,2.441 4.895,3.705 7.819,3.705 2.244,0 4.503,-0.745 6.376,-2.275 l 24.33,-19.87 8.997,11.019 c 1.996,2.444 4.897,3.71 7.823,3.71 2.244,0 4.501,-0.744 6.374,-2.273 4.316,-3.525 4.959,-9.881 1.436,-14.198 z" id="path3043" style="fill:#ffffff;stroke:#222222;stroke-opacity:1;stroke-width:2;stroke-miterlimit:4;stroke-dasharray:none"/>
      </g>
    </g>
    <g id="g3045" transform="translate(133.87116,229.89521)" style="fill:#ffffff;stroke:#222222;stroke-opacity:1;stroke-width:2;stroke-miterlimit:4;stroke-dasharray:none">
      <g id="g3047" style="fill:#ffffff;stroke:#222222;stroke-opacity:1;stroke-width:2;stroke-miterlimit:4;stroke-dasharray:none">
        <path inkscape:connector-curvature="0" d="m 451.639,301.436 c -5.223,-1.968 -11.037,0.674 -12.998,5.888 l -5.733,15.23 -17.88,-32.329 c -2.697,-4.877 -8.835,-6.641 -13.714,-3.947 -4.877,2.697 -6.644,8.837 -3.946,13.714 l 28.455,51.45 c 1.786,3.228 5.177,5.207 8.827,5.207 0.244,0 0.488,-0.009 0.736,-0.026 3.924,-0.286 7.326,-2.826 8.711,-6.508 l 13.431,-35.679 c 1.962,-5.217 -0.675,-11.038 -5.889,-13 z" id="path3049" style="fill:#ffffff;stroke:#222222;stroke-opacity:1;stroke-width:2;stroke-miterlimit:4;stroke-dasharray:none"/>
      </g>
    </g>
    <g id="g3051" transform="translate(133.87116,229.89521)" style="stroke:#222222;stroke-opacity:1;stroke-width:2;stroke-miterlimit:4;stroke-dasharray:none">
      <g id="g3053" style="stroke:#222222;stroke-opacity:1;stroke-width:2;stroke-miterlimit:4;stroke-dasharray:none"/>
    </g>
    <g id="g3057" transform="translate(133.87116,229.89521)" style="stroke:#222222;stroke-opacity:1;stroke-width:2;stroke-miterlimit:4;stroke-dasharray:none"/>
    <g id="g3059" transform="translate(133.87116,229.89521)" style="stroke:#222222;stroke-opacity:1;stroke-width:2;stroke-miterlimit:4;stroke-dasharray:none"/>
    <g id="g3061" transform="translate(133.87116,229.89521)" style="stroke:#222222;stroke-opacity:1;stroke-width:2;stroke-miterlimit:4;stroke-dasharray:none"/>
    <g id="g3063" transform="translate(133.87116,229.89521)" style="stroke:#222222;stroke-opacity:1;stroke-width:2;stroke-miterlimit:4;stroke-dasharray:none"/>
    <g id="g3065" transform="translate(133.87116,229.89521)" style="stroke:#222222;stroke-opacity:1;stroke-width:2;stroke-miterlimit:4;stroke-dasharray:none"/>
    <g id="g3067" transform="translate(133.87116,229.89521)" style="stroke:#222222;stroke-opacity:1;stroke-width:2;stroke-miterlimit:4;stroke-dasharray:none"/>
    <g id="g3069" transform="translate(133.87116,229.89521)" style="stroke:#222222;stroke-opacity:1;stroke-width:2;stroke-miterlimit:4;stroke-dasharray:none"/>
    <g id="g3071" transform="translate(133.87116,229.89521)" style="stroke:#222222;stroke-opacity:1;stroke-width:2;stroke-miterlimit:4;stroke-dasharray:none"/>
    <g id="g3073" transform="translate(133.87116,229.89521)" style="stroke:#222222;stroke-opacity:1;stroke-width:2;stroke-miterlimit:4;stroke-dasharray:none"/>
    <g id="g3075" transform="translate(133.87116,229.89521)" style="stroke:#222222;stroke-opacity:1;stroke-width:2;stroke-miterlimit:4;stroke-dasharray:none"/>
    <g id="g3077" transform="translate(133.87116,229.89521)" style="stroke:#222222;stroke-opacity:1;stroke-width:2;stroke-miterlimit:4;stroke-dasharray:none"/>
    <g id="g3079" transform="translate(133.87116,229.89521)" style="stroke:#222222;stroke-opacity:1;stroke-width:2;stroke-miterlimit:4;stroke-dasharray:none"/>
    <g id="g3081" transform="translate(133.87116,229.89521)" style="stroke:#222222;stroke-opacity:1;stroke-width:2;stroke-miterlimit:4;stroke-dasharray:none"/>
    <g id="g3083" transform="translate(133.87116,229.89521)" style="stroke:#222222;stroke-opacity:1;stroke-width:2;stroke-miterlimit:4;stroke-dasharray:none"/>
    <g id="g3085" transform="translate(133.87116,229.89521)" style="stroke:#222222;stroke-opacity:1;stroke-width:2;stroke-miterlimit:4;stroke-dasharray:none"/>
    <g transform="matrix(0.99996301,0,0,1.000037,-2,0)" style="font-size:191.68379211000001000px;font-style:normal;font-variant:normal;font-weight:normal;font-stretch:normal;line-height:125%;letter-spacing:0px;word-spacing:0px;fill:#ffffff;fill-opacity:1;fill-rule:nonzero;stroke:#222222;font-family:Patrick Hand;-inkscape-font-specification:Patrick Hand;stroke-opacity:1;stroke-width:1.99999999;stroke-miterlimit:4;stroke-dasharray:none" id="text3140">
      <path d="m 388.783,540.2495 c 3.06516,2e-5 5.62051,1.02177 7.66606,3.06526 2.04536,2.04352 3.06808,4.59984 3.06818,7.66899 -1e-4,2.93656 -1.02282,5.3954 -3.06818,7.3765 -2.04555,1.98111 -4.6009,2.97166 -7.66606,2.97166 l -65.17764,0 c -3.31876,0 -5.93749,-1.02273 -7.85618,-3.06818 -1.91872,-2.04545 -2.87808,-4.66515 -2.87807,-7.85911 -10e-6,-3.19393 1.15044,-6.0057 3.45134,-8.4353 l 41.79044,-44.66265 c 4.59782,-4.98 8.30264,-10.05853 11.11447,-15.23561 2.8117,-5.17692 4.21759,-10.00197 4.21766,-14.47515 -7e-5,-3.95821 -0.95845,-7.53532 -2.87514,-10.73132 -1.91683,-3.19579 -4.40881,-5.75212 -7.47595,-7.66899 -3.06727,-1.91664 -6.38893,-2.87502 -9.96501,-2.87514 -3.70877,1.2e-4 -7.47989,1.24611 -11.31337,3.73798 -3.83355,2.49209 -7.21859,5.78353 -10.15512,9.87433 -1.53266,2.04361 -3.06626,3.3208 -4.60081,3.83157 -1.5346,0.51098 -2.94146,0.76642 -4.22058,0.76632 -2.80788,10e-5 -5.39443,-1.05383 -7.75966,-3.16178 -2.36524,-2.10775 -3.54786,-4.56755 -3.54785,-7.37943 -10e-6,-2.17208 0.7351,-4.28091 2.20534,-6.32647 1.47022,-2.04534 3.29143,-4.15417 5.46365,-6.32648 4.85525,-4.85515 10.4778,-8.75204 16.86768,-11.69068 6.38981,-2.93837 12.52324,-4.40763 18.40031,-4.40777 8.68873,1.4e-4 16.16467,1.78918 22.42784,5.36713 6.26303,3.57821 11.11927,8.49782 14.56874,14.75885 3.4493,6.26127 5.17399,13.35405 5.17409,21.27838 -1e-4,5.36624 -0.99065,10.8289 -2.97166,16.388 -1.9812,5.55927 -4.69644,10.95856 -8.14575,16.19789 -3.44946,5.23946 -7.4107,10.2868 -11.88371,15.14202 l -25.87919,27.599 -2.1059,-1.71982 z" style="font-weight:bold;font-family:Quicksand;-inkscape-font-specification:Quicksand Bold;fill:#ffffff;stroke:#222222;stroke-opacity:1;stroke-width:1.99999999;stroke-miterlimit:4;stroke-dasharray:none" id="path3842" inkscape:connector-curvature="0"/>
      <path d="m 455.7097,561.33191 c -3.57617,0 -6.51468,-1.11827 -8.81554,-3.35482 -2.30092,-2.23654 -3.45136,-5.01613 -3.45133,-8.33878 l 0,-96.60821 2.68502,4.21765 -14.57166,8.81554 c -1.91483,1.15054 -3.95833,1.72576 -6.13052,1.72567 -3.32265,9e-5 -6.07007,-1.2459 -8.24226,-3.73798 -2.1722,-2.49188 -3.2583,-5.14376 -3.2583,-7.95563 0,-4.34428 1.98111,-7.66692 5.94332,-9.96793 l 28.94444,-17.25084 c 2.17216,-1.15031 4.91958,-1.72553 8.24227,-1.72567 3.32259,1.4e-4 6.03784,1.11841 8.14574,3.35482 2.1078,2.23668 3.16172,5.01627 3.16178,8.33879 l 0,110.79379 c -6e-5,3.32265 -1.1817,6.10224 -3.54494,8.33878 -2.36334,2.23655 -5.39934,3.35482 -9.10802,3.35482 z" style="font-weight:bold;font-family:Quicksand;-inkscape-font-specification:Quicksand Bold;fill:#ffffff;stroke:#222222;stroke-opacity:1;stroke-width:1.99999999;stroke-miterlimit:4;stroke-dasharray:none" id="path3844" inkscape:connector-curvature="0"/>
    </g>
  </g>
</svg>